<svg xmlns="http://www.w3.org/2000/svg" version="1.1" xmlns:xlink="http://www.w3.org/1999/xlink" xmlns:svgjs="http://svgjs.dev/svgjs" width="1440" height="1080" preserveAspectRatio="none" viewBox="0 0 1440 1080"><g mask="url(&quot;#SvgjsMask3617&quot;)" fill="none"><rect width="1440" height="1080" x="0" y="0" fill="url(&quot;#SvgjsLinearGradient3618&quot;)"></rect><path d="M179 2L178 530" stroke-width="10" stroke="url(&quot;#SvgjsLinearGradient3619&quot;)" stroke-linecap="round" class="Up"></path><path d="M827 316L826 1087" stroke-width="8" stroke="url(&quot;#SvgjsLinearGradient3620&quot;)" stroke-linecap="round" class="Down"></path><path d="M174 304L173 -424" stroke-width="10" stroke="url(&quot;#SvgjsLinearGradient3619&quot;)" stroke-linecap="round" class="Up"></path><path d="M1128 412L1127 -324" stroke-width="6" stroke="url(&quot;#SvgjsLinearGradient3620&quot;)" stroke-linecap="round" class="Down"></path><path d="M1331 735L1330 228" stroke-width="6" stroke="url(&quot;#SvgjsLinearGradient3619&quot;)" stroke-linecap="round" class="Up"></path><path d="M1043 475L1042 134" stroke-width="6" stroke="url(&quot;#SvgjsLinearGradient3619&quot;)" stroke-linecap="round" class="Up"></path><path d="M624 1076L623 335" stroke-width="6" stroke="url(&quot;#SvgjsLinearGradient3620&quot;)" stroke-linecap="round" class="Down"></path><path d="M150 687L149 -86" stroke-width="6" stroke="url(&quot;#SvgjsLinearGradient3620&quot;)" stroke-linecap="round" class="Down"></path><path d="M509 40L508 -641" stroke-width="6" stroke="url(&quot;#SvgjsLinearGradient3620&quot;)" stroke-linecap="round" class="Down"></path><path d="M39 119L38 -452" stroke-width="6" stroke="url(&quot;#SvgjsLinearGradient3620&quot;)" stroke-linecap="round" class="Down"></path><path d="M1194 106L1193 683" stroke-width="6" stroke="url(&quot;#SvgjsLinearGradient3620&quot;)" stroke-linecap="round" class="Down"></path><path d="M1071 307L1070 -56" stroke-width="10" stroke="url(&quot;#SvgjsLinearGradient3620&quot;)" stroke-linecap="round" class="Down"></path><path d="M1340 463L1339 810" stroke-width="6" stroke="url(&quot;#SvgjsLinearGradient3620&quot;)" stroke-linecap="round" class="Down"></path><path d="M1348 639L1347 256" stroke-width="10" stroke="url(&quot;#SvgjsLinearGradient3620&quot;)" stroke-linecap="round" class="Down"></path><path d="M736 746L735 1088" stroke-width="8" stroke="url(&quot;#SvgjsLinearGradient3620&quot;)" stroke-linecap="round" class="Down"></path><path d="M408 1070L407 1452" stroke-width="6" stroke="url(&quot;#SvgjsLinearGradient3620&quot;)" stroke-linecap="round" class="Down"></path><path d="M1053 799L1052 394" stroke-width="8" stroke="url(&quot;#SvgjsLinearGradient3620&quot;)" stroke-linecap="round" class="Down"></path><path d="M158 692L157 153" stroke-width="8" stroke="url(&quot;#SvgjsLinearGradient3620&quot;)" stroke-linecap="round" class="Down"></path><path d="M739 196L738 798" stroke-width="8" stroke="url(&quot;#SvgjsLinearGradient3620&quot;)" stroke-linecap="round" class="Down"></path><path d="M329 218L328 791" stroke-width="6" stroke="url(&quot;#SvgjsLinearGradient3619&quot;)" stroke-linecap="round" class="Up"></path><path d="M1130 439L1129 1139" stroke-width="6" stroke="url(&quot;#SvgjsLinearGradient3619&quot;)" stroke-linecap="round" class="Up"></path><path d="M818 371L817 777" stroke-width="8" stroke="url(&quot;#SvgjsLinearGradient3619&quot;)" stroke-linecap="round" class="Up"></path><path d="M791 130L790 746" stroke-width="6" stroke="url(&quot;#SvgjsLinearGradient3620&quot;)" stroke-linecap="round" class="Down"></path><path d="M262 449L261 -316" stroke-width="8" stroke="url(&quot;#SvgjsLinearGradient3620&quot;)" stroke-linecap="round" class="Down"></path><path d="M1028 111L1027 -565" stroke-width="6" stroke="url(&quot;#SvgjsLinearGradient3620&quot;)" stroke-linecap="round" class="Down"></path><path d="M133 593L132 895" stroke-width="6" stroke="url(&quot;#SvgjsLinearGradient3619&quot;)" stroke-linecap="round" class="Up"></path><path d="M369 898L368 1630" stroke-width="10" stroke="url(&quot;#SvgjsLinearGradient3620&quot;)" stroke-linecap="round" class="Down"></path><path d="M1029 694L1028 1196" stroke-width="8" stroke="url(&quot;#SvgjsLinearGradient3619&quot;)" stroke-linecap="round" class="Up"></path><path d="M1397 519L1396 1025" stroke-width="8" stroke="url(&quot;#SvgjsLinearGradient3619&quot;)" stroke-linecap="round" class="Up"></path><path d="M245 141L244 -393" stroke-width="8" stroke="url(&quot;#SvgjsLinearGradient3620&quot;)" stroke-linecap="round" class="Down"></path><path d="M1097 579L1096 -84" stroke-width="10" stroke="url(&quot;#SvgjsLinearGradient3619&quot;)" stroke-linecap="round" class="Up"></path><path d="M1094 667L1093 354" stroke-width="6" stroke="url(&quot;#SvgjsLinearGradient3620&quot;)" stroke-linecap="round" class="Down"></path><path d="M574 513L573 1102" stroke-width="6" stroke="url(&quot;#SvgjsLinearGradient3620&quot;)" stroke-linecap="round" class="Down"></path><path d="M977 264L976 706" stroke-width="8" stroke="url(&quot;#SvgjsLinearGradient3620&quot;)" stroke-linecap="round" class="Down"></path><path d="M610 799L609 70" stroke-width="6" stroke="url(&quot;#SvgjsLinearGradient3619&quot;)" stroke-linecap="round" class="Up"></path><path d="M725 556L724 -92" stroke-width="6" stroke="url(&quot;#SvgjsLinearGradient3619&quot;)" stroke-linecap="round" class="Up"></path></g><defs><mask id="SvgjsMask3617"><rect width="1440" height="1080" fill="#ffffff"></rect></mask><linearGradient x1="6.25%" y1="-8.33%" x2="93.75%" y2="108.33%" gradientUnits="userSpaceOnUse" id="SvgjsLinearGradient3618"><stop stop-color="rgba(14, 42, 71, 0.61)" offset="0"></stop><stop stop-color="rgba(234, 242, 253, 1)" offset="1"></stop></linearGradient><linearGradient x1="0%" y1="100%" x2="0%" y2="0%" id="SvgjsLinearGradient3619"><stop stop-color="rgba(28, 83, 142, 0)" offset="0"></stop><stop stop-color="#1c538e" offset="1"></stop></linearGradient><linearGradient x1="0%" y1="0%" x2="0%" y2="100%" id="SvgjsLinearGradient3620"><stop stop-color="rgba(28, 83, 142, 0)" offset="0"></stop><stop stop-color="#1c538e" offset="1"></stop></linearGradient></defs></svg>